<?xml version="1.0" encoding="UTF-8"?>
<svg id="objects" xmlns="http://www.w3.org/2000/svg" viewBox="0 0 489.07 489.07">
  <defs>
    <style>
      .cls-1 {
        fill: #fff;
      }

      .cls-2 {
        fill: #bc9e69;
      }
    </style>
  </defs>
  <path class="cls-1" d="m406.86,381.41H128.66c-44.59,0-80.87-36.28-80.87-80.88,0-21.61,8.41-41.92,23.68-57.2,14.95-14.95,34.82-23.35,55.94-23.67.06,0,.12,0,.17,0h.61s.1,0,.15-.01c5.53-.21,9.85-4.71,9.85-10.25,0-28.21,10.99-54.74,30.94-74.68,19.95-19.95,46.47-30.94,74.68-30.94,24.2,0,47.84,8.4,66.59,23.63,14.57,11.86,25.74,27.44,32.3,44.86,6.29-2.26,12.95-3.42,19.77-3.42,30.04,0,54.88,22.77,58.14,51.96,16.8,2.86,32.23,10.95,44.31,23.38,14.73,15.18,22.85,35.18,22.85,56.34,0,44.59-36.28,80.88-80.88,80.88ZM127.67,243.07c-14.98.25-29.06,6.22-39.66,16.82-10.85,10.85-16.83,25.29-16.83,40.65,0,31.69,25.78,57.48,57.48,57.48h278.21c31.69,0,57.48-25.79,57.48-57.48,0-15.04-5.76-29.26-16.24-40.04-10.45-10.76-24.44-16.95-39.4-17.41-3.21-.1-6.24-1.51-8.37-3.91-2.13-2.4-3.19-5.57-2.91-8.78.09-1.03.13-2.06.13-3.05,0-19.35-15.75-35.1-35.1-35.1-7.29,0-14.27,2.21-20.2,6.4-3.2,2.26-7.32,2.76-10.97,1.35-3.65-1.41-6.35-4.56-7.2-8.39-3.97-17.99-14.07-34.33-28.46-46.03-14.58-11.86-32.99-18.39-51.82-18.39-45.34,0-82.22,36.88-82.22,82.22,0,8.79-3.37,17.11-9.48,23.42-6.09,6.29-14.26,9.92-23,10.22-.27.01-.67.02-1.42.02Z"/>
  <path class="cls-2" d="m.38,176.91c.73.81,1.46,1.63,2.22,2.42,1.41,1.47,2.88,2.88,4.4,4.21,11.34,9.96,25.96,16.28,42.05,17.24,1.38.11,2.79.14,4.21.14,38.77,0,70.2-31.44,70.2-70.21,0-31.45-20.68-58.07-49.21-67.01,1.53,1.75,2.97,3.55,4.29,5.46l.03.03c.76,1.04,1.5,2.14,2.17,3.24,6.88,10.84,10.87,23.67,10.87,37.48,0,38.77-31.47,70.2-70.24,70.2-1.41,0-2.85-.06-4.24-.14-5.81-.34-11.43-1.38-16.75-3.05Z"/>
</svg>