<?xml version="1.0" encoding="UTF-8"?>
<svg id="objects" xmlns="http://www.w3.org/2000/svg" viewBox="0 0 489.07 489.07">
  <defs>
    <style>
      .cls-1 {
        fill: #fff;
      }

      .cls-2 {
        fill: #7997a8;
      }
    </style>
  </defs>
  <g>
    <path class="cls-2" d="m200.39,383.9c-3.25,0-6.49-1.25-8.96-3.77l-29.48-29.93c-4.87-4.93-4.81-12.91.14-17.79,4.95-4.87,12.91-4.82,17.78.13l29.49,29.96c4.87,4.94,4.81,12.9-.13,17.78-2.46,2.41-5.66,3.62-8.84,3.62Z"/>
    <path class="cls-2" d="m227.71,326.64c-3.23,0-6.5-1.25-8.96-3.77l-29.47-29.95c-4.88-4.93-4.81-12.91.13-17.8,4.95-4.87,12.93-4.82,17.8.13l29.48,29.96c4.87,4.95,4.8,12.91-.14,17.8-2.46,2.4-5.64,3.62-8.83,3.62Z"/>
    <path class="cls-2" d="m310.94,383.9c-3.25,0-6.5-1.25-8.97-3.77l-29.46-29.93c-4.88-4.93-4.84-12.91.13-17.79,4.94-4.87,12.92-4.82,17.79.13l29.48,29.96c4.88,4.94,4.82,12.9-.14,17.78-2.44,2.41-5.64,3.62-8.83,3.62Z"/>
  </g>
  <path class="cls-1" d="m438.24,230.78c-11.8-12.16-26.89-20.07-43.31-22.87-3.18-28.54-27.45-50.8-56.82-50.8-6.67,0-13.18,1.14-19.33,3.34-6.41-17.02-17.31-32.25-31.56-43.84-18.32-14.9-41.43-23.1-65.08-23.1-27.57,0-53.49,10.74-72.99,30.23-19.5,19.5-30.24,45.42-30.24,73,0,5.42-4.22,9.82-9.62,10.03-.05,0-.1,0-.14,0-.22,0-.53,0-.59,0h-.17c-20.64.31-40.06,8.53-54.67,23.15-14.93,14.94-23.15,34.8-23.15,55.93,0,43.61,35.46,79.07,79.05,79.07h32.61v-22.87h-32.61c-30.98,0-56.18-25.21-56.18-56.2,0-15.02,5.84-29.14,16.44-39.75,10.37-10.37,24.14-16.21,38.77-16.45.73,0,1.12,0,1.39-.02,8.54-.29,16.52-3.84,22.48-9.99,5.98-6.18,9.27-14.31,9.27-22.91,0-44.31,36.05-80.36,80.36-80.36,18.41,0,36.4,6.38,50.65,17.97,14.06,11.43,23.94,27.41,27.81,44.99.83,3.74,3.47,6.82,7.04,8.2,3.57,1.38,7.59.89,10.72-1.32,5.79-4.09,12.62-6.25,19.74-6.25,18.91,0,34.3,15.39,34.3,34.31,0,.97-.04,1.97-.13,2.98-.27,3.13.76,6.23,2.85,8.58,2.09,2.34,5.05,3.73,8.19,3.83,14.62.45,28.3,6.5,38.51,17.02,10.23,10.55,15.87,24.45,15.87,39.16,0,30.99-25.2,56.2-56.18,56.2h-32.61v22.87h32.61c43.59,0,79.05-35.47,79.05-79.07,0-20.69-7.93-40.26-22.33-55.09Z"/>
</svg>