<?xml version="1.0" encoding="UTF-8"?>
<svg id="objects" xmlns="http://www.w3.org/2000/svg" viewBox="0 0 489.07 489.07">
  <defs>
    <style>
      .cls-1 {
        fill: #fff;
      }

      .cls-2 {
        fill: #7997a8;
      }
    </style>
  </defs>
  <path class="cls-1" d="m440.54,215.49c-12.07-12.43-27.51-20.52-44.31-23.38-3.26-29.2-28.08-51.96-58.13-51.96-6.82,0-13.48,1.16-19.77,3.42-6.56-17.42-17.72-33-32.3-44.85-18.74-15.24-42.39-23.64-66.59-23.64-28.21,0-54.73,10.98-74.68,30.93-19.95,19.95-30.94,46.47-30.94,74.68,0,5.55-4.32,10.04-9.85,10.26-.05,0-.1,0-.15,0-.22,0-.55,0-.61,0s-.12,0-.18,0c-21.12.32-40.99,8.72-55.94,23.67-15.27,15.27-23.68,35.59-23.68,57.2,0,44.6,36.28,80.88,80.87,80.88h33.36v-23.4h-33.36c-31.69,0-57.48-25.78-57.48-57.48,0-15.36,5.97-29.8,16.82-40.65,10.61-10.61,24.69-16.57,39.66-16.82.75,0,1.15,0,1.42-.02,8.74-.31,16.9-3.93,23-10.23,6.12-6.31,9.49-14.63,9.49-23.42,0-45.33,36.88-82.22,82.22-82.22,18.83,0,37.24,6.53,51.82,18.39,14.38,11.7,24.49,28.05,28.46,46.03.84,3.83,3.54,6.97,7.2,8.39,3.65,1.41,7.77.91,10.97-1.35,5.93-4.18,12.91-6.39,20.2-6.39,19.35,0,35.1,15.74,35.1,35.1,0,.99-.04,2.02-.13,3.05-.27,3.2.78,6.37,2.92,8.77,2.13,2.4,5.16,3.82,8.37,3.92,14.96.47,28.95,6.65,39.4,17.42,10.47,10.78,16.24,25,16.24,40.03,0,31.69-25.79,57.48-57.48,57.48h-33.36v23.4h33.36c44.59,0,80.88-36.28,80.88-80.88,0-21.16-8.11-41.16-22.85-56.34Z"/>
  <g>
    <path class="cls-2" d="m176.64,410.12c-4.12,0-7.47-3.34-7.47-7.47v-99.1c0-4.12,3.34-7.47,7.47-7.47s7.47,3.35,7.47,7.47v99.1c0,4.12-3.34,7.47-7.47,7.47Z"/>
    <path class="cls-2" d="m202.5,410.12c-4.13,0-7.47-3.34-7.47-7.47v-99.1c0-4.12,3.34-7.47,7.47-7.47s7.47,3.35,7.47,7.47v99.1c0,4.12-3.34,7.47-7.47,7.47Z"/>
    <path class="cls-2" d="m228.35,410.12c-4.12,0-7.47-3.34-7.47-7.47v-99.1c0-4.12,3.35-7.47,7.47-7.47s7.47,3.35,7.47,7.47v99.1c0,4.12-3.34,7.47-7.47,7.47Z"/>
    <path class="cls-2" d="m254.2,410.12c-4.13,0-7.47-3.34-7.47-7.47v-99.1c0-4.12,3.34-7.47,7.47-7.47s7.47,3.35,7.47,7.47v99.1c0,4.12-3.34,7.47-7.47,7.47Z"/>
    <path class="cls-2" d="m280.05,410.12c-4.12,0-7.47-3.34-7.47-7.47v-99.1c0-4.12,3.34-7.47,7.47-7.47s7.47,3.35,7.47,7.47v99.1c0,4.12-3.34,7.47-7.47,7.47Z"/>
    <path class="cls-2" d="m305.91,410.12c-4.12,0-7.47-3.34-7.47-7.47v-99.1c0-4.12,3.34-7.47,7.47-7.47s7.47,3.35,7.47,7.47v99.1c0,4.12-3.34,7.47-7.47,7.47Z"/>
  </g>
</svg>