<?xml version="1.0" encoding="UTF-8"?>
<svg id="objects" xmlns="http://www.w3.org/2000/svg" viewBox="0 0 489.07 489.07">
  <defs>
    <style>
      .cls-1 {
        fill: #fff;
      }
    </style>
  </defs>
  <path class="cls-1" d="m378.67,378.39H110.4c-43,0-77.99-34.99-77.99-77.99,0-20.83,8.11-40.43,22.84-55.15,14.42-14.42,33.58-22.52,53.94-22.83.06,0,.11,0,.17,0,.06,0,.37,0,.59,0,.05,0,.1,0,.14,0,5.33-.21,9.49-4.55,9.49-9.9,0-27.2,10.59-52.78,29.83-72.02,19.24-19.23,44.81-29.83,72.02-29.83,23.33,0,46.14,8.1,64.21,22.79,14.06,11.43,24.81,26.46,31.14,43.25,6.06-2.17,12.49-3.3,19.07-3.3,28.98,0,52.91,21.96,56.06,50.11,16.2,2.76,31.09,10.56,42.73,22.55,14.21,14.64,22.03,33.92,22.03,54.32,0,43-34.99,77.99-77.99,77.99ZM109.45,244.98c-14.44.24-28.02,6-38.25,16.22-10.46,10.46-16.22,24.39-16.22,39.2,0,30.56,24.86,55.43,55.43,55.43h268.27c30.56,0,55.43-24.86,55.43-55.43,0-14.5-5.56-28.21-15.66-38.61-10.08-10.38-23.57-16.34-38-16.79-3.1-.1-6.02-1.47-8.08-3.78-2.06-2.32-3.08-5.37-2.81-8.46.09-1,.13-1.98.13-2.94,0-18.66-15.18-33.84-33.84-33.84-7.03,0-13.76,2.13-19.48,6.17-3.09,2.17-7.06,2.66-10.58,1.3-3.52-1.37-6.13-4.4-6.94-8.09-3.82-17.34-13.57-33.11-27.44-44.39-14.06-11.43-31.81-17.73-49.97-17.73-43.72,0-79.29,35.57-79.29,79.28,0,8.48-3.25,16.5-9.15,22.59-5.87,6.06-13.75,9.56-22.18,9.85-.26,0-.65.02-1.37.02Z"/>
</svg>