<?xml version="1.0" encoding="UTF-8"?>
<svg id="objects" xmlns="http://www.w3.org/2000/svg" viewBox="0 0 489.07 489.07">
  <defs>
    <style>
      .cls-1 {
        fill: #fff;
      }

      .cls-2 {
        fill: #7997a8;
      }
    </style>
  </defs>
  <path class="cls-1" d="m435.67,240.78c-12.07-12.43-27.51-20.52-44.31-23.38-3.26-29.19-28.09-51.96-58.13-51.96-6.82,0-13.49,1.16-19.77,3.42-6.56-17.41-17.72-33-32.3-44.85-18.74-15.24-42.39-23.64-66.59-23.64-28.21,0-54.73,10.99-74.68,30.94-19.95,19.95-30.94,46.47-30.94,74.68,0,5.54-4.32,10.04-9.85,10.26-.05,0-.1,0-.14,0-.22,0-.55,0-.61,0h-.18c-21.12.32-40.98,8.72-55.94,23.67-15.27,15.28-23.68,35.59-23.68,57.2,0,44.59,36.28,80.88,80.88,80.88h33.36v-23.4h-33.36c-31.7,0-57.48-25.79-57.48-57.48,0-15.36,5.97-29.8,16.83-40.65,10.61-10.6,24.69-16.57,39.66-16.82.75,0,1.15,0,1.42-.02,8.74-.3,16.91-3.93,23-10.22,6.12-6.32,9.48-14.63,9.48-23.42,0-45.34,36.88-82.22,82.22-82.22,18.83,0,37.24,6.53,51.82,18.39,14.38,11.7,24.49,28.04,28.46,46.03.84,3.82,3.54,6.97,7.2,8.39,3.65,1.41,7.77.91,10.97-1.35,5.93-4.19,12.91-6.4,20.2-6.4,19.35,0,35.1,15.75,35.1,35.1,0,.99-.05,2.02-.14,3.05-.27,3.2.78,6.37,2.92,8.78,2.13,2.4,5.16,3.82,8.37,3.92,14.96.47,28.95,6.65,39.4,17.41,10.47,10.78,16.24,25,16.24,40.04,0,31.69-25.78,57.48-57.48,57.48h-33.36v23.4h33.36c44.6,0,80.88-36.29,80.88-80.88,0-21.16-8.11-41.17-22.85-56.34Z"/>
  <g>
    <path class="cls-2" d="m204.85,356.7h-16.49l11.66-11.66c1.03-1.03,1.03-2.7,0-3.73-1.03-1.03-2.7-1.03-3.73,0l-11.67,11.66v-16.49c0-1.46-1.18-2.64-2.64-2.64s-2.64,1.18-2.64,2.64v16.49l-11.66-11.66c-1.03-1.03-2.7-1.03-3.73,0-1.03,1.03-1.03,2.7,0,3.73l11.66,11.66h-16.49c-1.46,0-2.64,1.18-2.64,2.64s1.18,2.64,2.64,2.64h16.49l-11.66,11.66c-1.03,1.03-1.03,2.7,0,3.73.51.52,1.19.77,1.86.77s1.35-.26,1.87-.77l11.66-11.66v16.49c0,1.45,1.18,2.64,2.64,2.64s2.64-1.19,2.64-2.64v-16.49l11.67,11.66c.51.52,1.19.77,1.86.77s1.35-.26,1.87-.77c1.03-1.03,1.03-2.7,0-3.73l-11.66-11.66h16.49c1.46,0,2.64-1.18,2.64-2.64s-1.18-2.64-2.64-2.64Z"/>
    <path class="cls-2" d="m313.09,356.7h-16.49l11.66-11.66c1.03-1.03,1.03-2.7,0-3.73-1.03-1.03-2.7-1.03-3.73,0l-11.66,11.66v-16.49c0-1.46-1.18-2.64-2.64-2.64s-2.64,1.18-2.64,2.64v16.49l-11.66-11.66c-1.03-1.03-2.7-1.03-3.73,0-1.03,1.03-1.03,2.7,0,3.73l11.66,11.66h-16.49c-1.46,0-2.64,1.18-2.64,2.64s1.18,2.64,2.64,2.64h16.49l-11.66,11.66c-1.03,1.03-1.03,2.7,0,3.73.51.52,1.19.77,1.86.77s1.35-.26,1.87-.77l11.66-11.66v16.49c0,1.45,1.18,2.64,2.64,2.64s2.64-1.19,2.64-2.64v-16.49l11.66,11.66c.52.52,1.19.77,1.87.77s1.35-.26,1.86-.77c1.03-1.03,1.03-2.7,0-3.73l-11.66-11.66h16.49c1.46,0,2.64-1.18,2.64-2.64s-1.18-2.64-2.64-2.64Z"/>
    <path class="cls-2" d="m261.41,295.79h-16.49l11.66-11.66c1.03-1.03,1.03-2.7,0-3.73-1.03-1.03-2.7-1.03-3.73,0l-11.66,11.66v-16.49c0-1.46-1.19-2.64-2.64-2.64s-2.64,1.18-2.64,2.64v16.49l-11.66-11.66c-1.03-1.03-2.7-1.03-3.73,0-1.03,1.03-1.03,2.7,0,3.73l11.66,11.66h-16.49c-1.46,0-2.64,1.18-2.64,2.64s1.18,2.64,2.64,2.64h16.49l-11.66,11.66c-1.03,1.03-1.03,2.7,0,3.73.52.51,1.19.77,1.87.77s1.35-.26,1.86-.77l11.66-11.66v16.49c0,1.46,1.18,2.64,2.64,2.64s2.64-1.18,2.64-2.64v-16.49l11.66,11.66c.51.51,1.19.77,1.86.77s1.35-.26,1.86-.77c1.03-1.03,1.03-2.7,0-3.73l-11.66-11.66h16.49c1.45,0,2.64-1.18,2.64-2.64s-1.19-2.64-2.64-2.64Z"/>
  </g>
</svg>