<?xml version="1.0" encoding="UTF-8"?>
<svg id="objects" xmlns="http://www.w3.org/2000/svg" viewBox="0 0 489.07 489.07">
  <defs>
    <style>
      .cls-1 {
        fill: #fff;
      }

      .cls-2 {
        fill: #bc9e69;
      }

      .cls-3 {
        fill: #7997a8;
      }
    </style>
  </defs>
  <path class="cls-1" d="m435.13,246.07c-11.67-12.02-26.6-19.84-42.84-22.61-3.15-28.22-27.16-50.24-56.21-50.24-6.59,0-13.04,1.13-19.11,3.31-6.35-16.84-17.13-31.9-31.23-43.37-18.12-14.73-40.98-22.85-64.38-22.85-27.28,0-52.92,10.62-72.21,29.91-19.29,19.29-29.91,44.93-29.91,72.21,0,5.36-4.17,9.71-9.52,9.92-.05,0-.09,0-.14,0-.21,0-.53,0-.59,0h-.17c-20.42.31-39.63,8.44-54.09,22.89-14.76,14.77-22.89,34.41-22.89,55.3,0,43.12,35.08,78.2,78.2,78.2h32.26v-22.62h-32.26c-30.64,0-55.57-24.93-55.57-55.58,0-14.85,5.78-28.81,16.27-39.3,10.26-10.25,23.87-16.03,38.35-16.26.73,0,1.11,0,1.37-.02,8.45-.29,16.35-3.8,22.24-9.88,5.91-6.1,9.17-14.14,9.17-22.65,0-43.83,35.66-79.49,79.5-79.49,18.21,0,36.01,6.31,50.11,17.78,13.91,11.31,23.68,27.11,27.52,44.5.82,3.7,3.43,6.74,6.96,8.11,3.53,1.37,7.51.88,10.61-1.3,5.73-4.04,12.48-6.18,19.53-6.18,18.71,0,33.93,15.22,33.93,33.93,0,.96-.05,1.95-.13,2.95-.27,3.09.76,6.16,2.82,8.48,2.06,2.32,4.99,3.69,8.1,3.79,14.46.45,27.99,6.43,38.1,16.83,10.12,10.42,15.7,24.17,15.7,38.71,0,30.65-24.93,55.58-55.58,55.58h-32.25v22.62h32.25c43.12,0,78.2-35.08,78.2-78.2,0-20.45-7.84-39.8-22.09-54.47Z"/>
  <g>
    <path class="cls-2" d="m218.95,333.73c0-.09,0-.17,0-.26,0-.05,0-.09.02-.14,0-.04,0-.09,0-.14,0-.06.02-.11.02-.17,0-.04,0-.07.01-.11,0-.06.02-.12.02-.18,0-.03.01-.06.02-.09,0-.06.02-.11.04-.18,0-.03,0-.06.02-.09.01-.06.04-.11.05-.17,0-.03.01-.06.03-.1.01-.05.03-.11.05-.16.02-.04.02-.07.04-.11.02-.05.03-.1.06-.14,0-.04.03-.08.05-.11.01-.04.03-.09.04-.13.02-.04.05-.09.06-.13.02-.04.03-.07.05-.1.03-.05.05-.1.08-.15.02-.03.03-.06.05-.09.02-.06.06-.11.09-.16.02-.03.03-.05.05-.08.04-.04.06-.09.09-.15.02-.02.03-.05.05-.07.03-.05.07-.1.1-.15.02-.03.05-.06.07-.09.03-.04.06-.08.1-.13.03-.04.06-.07.09-.11.03-.03.06-.06.09-.09.06-.07.13-.14.2-.2h0c.06-.06.12-.13.2-.19.03-.02.07-.06.1-.09.04-.03.07-.06.11-.09.04-.04.09-.07.13-.1.03-.02.06-.04.08-.06.05-.04.1-.08.15-.11.03-.02.05-.03.07-.04.06-.04.11-.08.16-.1.01-.02.05-.03.07-.05.05-.04.1-.06.15-.09.03-.02.06-.03.09-.05.05-.03.1-.05.15-.08.03-.02.07-.04.1-.05.05-.03.09-.04.14-.06.04-.02.07-.04.12-.05.04-.01.08-.03.12-.05.05-.01.09-.03.13-.05.04-.01.07-.02.11-.04.04-.02.09-.04.15-.05.04,0,.07-.02.1-.04.05,0,.11-.03.16-.04.04,0,.08,0,.1-.02.06-.01.12-.02.17-.04.03,0,.07,0,.11-.02.05,0,.11-.02.17-.03.03,0,.07,0,.11-.01.05,0,.1-.02.16-.02.05,0,.11-.01.16-.01.03,0,.07,0,.1,0,.1,0,.2,0,.29,0h30.63c3.09,0,5.61,2.51,5.61,5.6s-2.51,5.61-5.61,5.61h-17.11l30.41,30.41h0c.07.06.13.13.19.2.04.03.06.06.09.1.03.04.06.08.1.11.03.04.07.09.1.13.02.03.04.06.06.09.04.05.08.1.11.15.01.03.04.05.05.08.03.05.07.1.1.16.02.02.04.05.06.08.02.05.05.1.08.14.02.04.04.06.05.09.03.05.06.09.08.14.02.04.03.07.05.11.02.04.04.09.06.13.02.04.04.08.05.12.02.04.04.08.05.12.02.05.04.09.06.14,0,.03.02.07.03.1.02.06.04.11.06.16,0,.04,0,.07.03.1.01.05.02.11.04.18,0,.02.02.05.02.08.02.06.02.11.04.18,0,.03.01.06.02.09,0,.07.03.12.03.19,0,.03,0,.07.02.1,0,.06.01.11.02.17,0,.04,0,.1,0,.14,0,.04,0,.09,0,.14,0,.09,0,.17,0,.26v.02h0c0,.1,0,.19,0,.28,0,.04,0,.09,0,.13,0,.05,0,.09,0,.14,0,.06-.01.12-.02.17-.01.04-.01.07-.02.1,0,.06-.02.12-.03.18,0,.03-.01.06-.02.09-.01.06-.02.12-.04.18,0,.02-.02.06-.02.09-.02.06-.03.11-.04.17-.02.03-.02.06-.03.09-.02.06-.04.11-.06.16,0,.04-.02.07-.03.11-.02.05-.04.1-.06.14-.01.04-.03.08-.05.11-.01.04-.03.08-.05.12-.02.05-.04.09-.06.14-.02.03-.04.07-.05.1-.02.05-.05.1-.08.15,0,.03-.03.06-.05.09-.03.05-.05.11-.08.16-.02.02-.04.05-.06.08-.03.05-.06.1-.1.15-.01.02-.04.05-.05.07-.03.05-.07.1-.11.15-.02.03-.05.06-.06.09-.03.04-.07.09-.1.13-.03.04-.07.07-.1.11-.03.04-.05.06-.09.1-.06.07-.12.14-.19.2h0c-.07.06-.13.14-.2.2-.03.03-.07.06-.1.08-.03.03-.07.06-.1.09-.05.04-.09.07-.13.11-.03.02-.06.04-.08.06-.06.04-.11.07-.15.11-.03.02-.05.04-.08.05-.05.03-.1.07-.15.1-.02.01-.05.03-.08.04-.05.03-.1.06-.15.09-.03.01-.06.03-.09.04-.04.03-.09.05-.15.08-.03.02-.07.04-.09.05-.05.02-.09.04-.15.06-.03.02-.07.04-.11.05-.04.02-.09.03-.13.05-.05.01-.09.04-.13.05-.04.01-.07.03-.11.04-.04.02-.1.04-.15.05-.04,0-.07.02-.1.03-.06.01-.12.03-.17.04-.03,0-.06.02-.09.02-.06,0-.12.02-.18.04-.03,0-.06.01-.09.02-.06,0-.11.01-.18.03-.03,0-.07,0-.11.01-.06,0-.11.01-.16.02-.05,0-.1,0-.15.02-.04,0-.08,0-.12,0-.09,0-.19,0-.28,0h-11.12l8.52,12.75c2.03,3.22,3.81,6.12,3.2,6.91-.47.59-4.11-1.53-5.41-2.69l-23.81-18.61h0c-.06-.06-.12-.13-.19-.2-.03-.03-.05-.06-.09-.1-.02-.04-.06-.07-.09-.11-.04-.04-.07-.09-.11-.13-.02-.03-.04-.06-.06-.09-.04-.05-.07-.1-.11-.15-.02-.02-.04-.05-.05-.07-.03-.06-.07-.1-.1-.15-.02-.03-.04-.06-.04-.08-.03-.05-.06-.1-.09-.16-.02-.02-.04-.06-.05-.09-.03-.05-.06-.1-.08-.15-.02-.03-.04-.07-.05-.1-.02-.04-.05-.09-.06-.14-.02-.04-.03-.08-.05-.12-.02-.04-.03-.07-.05-.12-.02-.04-.03-.09-.05-.14-.02-.04-.03-.07-.04-.11-.01-.05-.03-.1-.05-.16,0-.03-.02-.06-.03-.09,0-.06-.03-.12-.04-.17-.01-.03-.01-.06-.02-.09-.02-.06-.03-.12-.04-.18,0-.03-.01-.06-.01-.09-.02-.06-.02-.12-.03-.18,0-.03-.02-.06-.02-.1,0-.05-.01-.11-.01-.17-.01-.04-.01-.09-.02-.14,0-.04,0-.09,0-.13,0-.09,0-.18,0-.26h0v-.04c0-.08,0-.17,0-.26,0-.05,0-.09,0-.14,0-.04,0-.09.02-.14,0-.06,0-.11.01-.17,0-.03,0-.07.02-.1,0-.06.01-.12.03-.19,0-.02,0-.05.01-.09.01-.06.03-.12.04-.18,0-.03,0-.06.02-.08,0-.06.03-.12.04-.18.01-.03.02-.06.03-.1.01-.05.03-.1.05-.16,0-.04.02-.07.04-.1.01-.05.03-.09.05-.14.02-.04.03-.08.05-.12.02-.04.03-.09.05-.12.02-.04.04-.09.06-.13.01-.04.03-.07.05-.11.02-.05.04-.09.08-.14,0-.03.03-.06.05-.09.03-.05.06-.1.09-.14,0-.03.02-.06.04-.08.04-.06.07-.11.1-.16.02-.03.03-.05.05-.08.03-.05.07-.09.11-.15.02-.03.04-.06.06-.09.04-.04.07-.09.11-.13.03-.03.06-.07.09-.11.04-.03.06-.06.09-.1.06-.07.13-.14.19-.2h0c.07-.07.15-.13.2-.19.03-.03.06-.06.1-.09.04-.03.07-.07.11-.09.05-.04.09-.07.14-.11.03-.02.06-.04.09-.06.05-.04.1-.07.14-.11.02-.01.05-.03.08-.05.05-.04.1-.07.15-.11.02-.01.05-.03.07-.04.05-.03.1-.06.16-.09.03-.01.05-.03.08-.05.05-.02.1-.05.15-.08.03,0,.06-.03.1-.04.05-.02.09-.05.14-.07.05-.01.07-.03.12-.04.04-.02.09-.03.13-.06.04-.01.09-.03.13-.04.03-.02.07-.03.11-.04.05-.02.1-.04.15-.05.03,0,.07-.02.1-.03.05-.01.11-.03.16-.04.03-.01.06-.01.1-.02.05-.01.11-.03.17-.04.03-.01.07-.02.1-.02.06,0,.11-.01.17-.02.04-.01.08-.01.12-.02.05,0,.09-.01.15-.02.05,0,.11,0,.16-.02h.11c.09,0,.19,0,.28,0h11.12l-30.4-30.4h0c-.07-.07-.13-.14-.2-.21-.03-.03-.05-.06-.09-.09-.03-.04-.06-.08-.09-.11-.04-.04-.06-.09-.1-.13-.02-.03-.05-.06-.07-.09-.03-.05-.07-.1-.1-.15-.02-.02-.03-.05-.05-.08-.03-.05-.06-.09-.09-.15-.02-.02-.03-.05-.05-.08-.02-.05-.06-.1-.09-.15-.02-.03-.03-.06-.05-.09-.02-.05-.05-.09-.08-.15-.02-.03-.03-.06-.05-.1-.02-.04-.04-.09-.06-.13,0-.04-.03-.09-.04-.12-.02-.05-.04-.09-.05-.12-.03-.05-.04-.1-.06-.14-.01-.03-.02-.07-.04-.11-.02-.05-.03-.11-.05-.15-.02-.04-.02-.07-.03-.1-.01-.06-.04-.11-.05-.17,0-.03-.01-.05-.02-.09-.01-.06-.03-.11-.04-.18,0-.03-.01-.06-.02-.09,0-.06-.02-.12-.02-.18-.01-.03-.01-.07-.01-.1,0-.06-.02-.12-.02-.17,0-.04,0-.09,0-.14-.01-.04-.01-.09-.02-.14,0-.09,0-.17,0-.26v-.02h0Z"/>
    <path class="cls-3" d="m211.96,359.07h-15.95l11.28-11.28c.99-1,.99-2.61,0-3.61-1-1-2.61-1-3.61,0l-11.28,11.27v-15.94c0-1.41-1.14-2.55-2.55-2.55s-2.55,1.14-2.55,2.55v15.94l-11.27-11.27c-1-1-2.61-1-3.61,0-.99,1-.99,2.61,0,3.61l11.28,11.28h-15.95c-1.41,0-2.55,1.14-2.55,2.55s1.14,2.55,2.55,2.55h15.95l-11.28,11.28c-.99,1-.99,2.61,0,3.61.5.5,1.15.75,1.8.75s1.31-.25,1.81-.75l11.27-11.27v15.95c0,1.41,1.14,2.55,2.55,2.55s2.55-1.14,2.55-2.55v-15.95l11.28,11.27c.5.5,1.15.75,1.8.75s1.31-.25,1.81-.75c.99-.99.99-2.61,0-3.61l-11.28-11.28h15.95c1.41,0,2.55-1.14,2.55-2.55s-1.14-2.55-2.55-2.55Z"/>
    <path class="cls-3" d="m316.62,359.07h-15.94l11.27-11.28c1-1,1-2.61,0-3.61-1-1-2.61-1-3.61,0l-11.27,11.27v-15.94c0-1.41-1.14-2.55-2.55-2.55s-2.55,1.14-2.55,2.55v15.94l-11.27-11.27c-1-1-2.61-1-3.61,0-1,1-1,2.61,0,3.61l11.27,11.28h-15.95c-1.41,0-2.55,1.14-2.55,2.55s1.14,2.55,2.55,2.55h15.95l-11.27,11.28c-1,1-1,2.61,0,3.61.5.5,1.15.75,1.8.75s1.31-.25,1.8-.75l11.27-11.27v15.95c0,1.41,1.14,2.55,2.55,2.55s2.55-1.14,2.55-2.55v-15.95l11.27,11.27c.5.5,1.15.75,1.81.75s1.3-.25,1.8-.75c1-.99,1-2.61,0-3.61l-11.27-11.28h15.94c1.41,0,2.55-1.14,2.55-2.55s-1.14-2.55-2.55-2.55Z"/>
  </g>
</svg>