<?xml version="1.0" encoding="UTF-8"?>
<svg id="objects" xmlns="http://www.w3.org/2000/svg" viewBox="0 0 667.16 489.07">
  <defs>
    <style>
      .cls-1 {
        fill: #fff;
      }

      .cls-2 {
        fill: #7997a8;
      }
    </style>
  </defs>
  <path class="cls-2" d="m45.71,280.31l68.57-35.64c1.26,0,2.28,1.01,2.29,2.27l.09,22.19v1.47c14.91,1.66,29.52,5.8,43.46,12.39,30.58,14.45,63.93,13.48,86.54,10.13,12.6-1.87,23.39-4.68,31.05-7.02,7.67-2.35,12.21-4.24,12.29-4.27,6.94-2.93,14.95.31,17.9,7.25,2.94,6.94-.3,14.96-7.25,17.91-.83.36-20.75,8.71-49.17,13.03-11.12,1.69-22.06,2.54-32.68,2.54-5.39,0-10.71-.22-15.92-.65-19.66-1.65-37.97-6.43-54.43-14.21-10.32-4.88-20.9-8.08-31.67-9.61l.11,25.77c0,1.26-1.01,2.28-2.26,2.28l-48.15-24.51-31.22-15.89,10.44-5.43Z"/>
  <path class="cls-1" d="m568.81,243.54c-11.75-12.1-26.78-19.98-43.12-22.76-3.17-28.41-27.34-50.58-56.58-50.58-6.63,0-13.12,1.13-19.24,3.33-6.39-16.95-17.25-32.12-31.43-43.65-18.24-14.83-41.25-23-64.81-23-27.46,0-53.27,10.69-72.68,30.11-19.42,19.42-30.11,45.23-30.11,72.69,0,5.4-4.21,9.77-9.58,9.98-.05,0-.09,0-.14,0-.21,0-.53,0-.59,0h-.17c-20.56.31-39.89,8.49-54.45,23.04-5.54,5.55-10.16,11.77-13.77,18.5l21.79,7.8c2.26-3.65,4.96-7.08,8.07-10.19,10.32-10.32,24.03-16.13,38.6-16.37.73,0,1.12,0,1.38-.02,8.5-.3,16.45-3.83,22.38-9.95,5.95-6.14,9.24-14.24,9.24-22.8,0-44.12,35.9-80.02,80.02-80.02,18.34,0,36.25,6.35,50.44,17.9,14,11.39,23.84,27.3,27.7,44.8.82,3.72,3.45,6.79,7.01,8.17,3.56,1.38,7.56.88,10.68-1.31,5.77-4.07,12.57-6.22,19.66-6.22,18.84,0,34.16,15.32,34.16,34.16,0,.96-.04,1.96-.13,2.97-.27,3.12.76,6.2,2.84,8.54,2.08,2.33,5.03,3.71,8.15,3.81,14.56.46,28.18,6.48,38.35,16.95,10.19,10.49,15.8,24.33,15.8,38.96,0,30.85-25.1,55.95-55.94,55.95H241.57c-16.16,0-30.73-6.88-40.95-17.87l-22.74,8.13c14.32,19.69,37.53,32.51,63.69,32.51h270.77c43.41,0,78.72-35.31,78.72-78.72,0-20.59-7.9-40.06-22.24-54.83Z"/>
</svg>