<?xml version="1.0" encoding="UTF-8"?>
<svg id="objects" xmlns="http://www.w3.org/2000/svg" viewBox="0 0 522.77 489.07">
  <defs>
    <style>
      .cls-1 {
        fill: #fff;
      }
    </style>
  </defs>
  <path class="cls-1" d="m410.02,359.27H117.77c-46.85,0-84.96-38.12-84.96-84.96,0-22.7,8.84-44.04,24.88-60.08,15.71-15.7,36.58-24.54,58.76-24.87.06,0,.12,0,.19,0,.07,0,.41,0,.64,0,.05,0,.1,0,.15,0,5.8-.23,10.34-4.95,10.34-10.78,0-29.63,11.54-57.49,32.5-78.45,20.96-20.95,48.82-32.49,78.45-32.49,25.42,0,50.26,8.82,69.95,24.83,15.32,12.45,27.03,28.83,33.92,47.12,6.6-2.37,13.61-3.59,20.77-3.59,31.57,0,57.64,23.92,61.07,54.59,17.64,3,33.87,11.5,46.55,24.56,15.48,15.94,24,36.96,24,59.18,0,46.85-38.11,84.96-84.96,84.96ZM116.73,213.93c-15.73.26-30.53,6.54-41.67,17.67-11.4,11.4-17.67,26.57-17.67,42.7,0,33.29,27.09,60.38,60.38,60.38h292.25c33.3,0,60.38-27.09,60.38-60.38,0-15.79-6.06-30.73-17.06-42.06-10.98-11.3-25.68-17.8-41.39-18.29-3.37-.11-6.55-1.6-8.8-4.12-2.24-2.52-3.35-5.85-3.06-9.22.09-1.09.14-2.16.14-3.2,0-20.33-16.54-36.87-36.87-36.87-7.66,0-14.99,2.32-21.22,6.72-3.36,2.37-7.69,2.9-11.53,1.42-3.84-1.49-6.68-4.8-7.56-8.82-4.17-18.89-14.78-36.07-29.89-48.36-15.32-12.46-34.65-19.32-54.44-19.32-47.63,0-86.37,38.75-86.37,86.37,0,9.24-3.54,17.98-9.97,24.61-6.4,6.61-14.98,10.42-24.16,10.74-.28,0-.7.02-1.49.02Z"/>
  <rect class="cls-1" x="76.32" y="386.85" width="377.65" height="26.12" rx="13.06" ry="13.06"/>
</svg>