<?xml version="1.0" encoding="UTF-8"?>
<svg id="objects" xmlns="http://www.w3.org/2000/svg" viewBox="0 0 489.07 489.07">
  <defs>
    <style>
      .cls-1 {
        fill: #fff;
      }

      .cls-2 {
        fill: #bc9e69;
      }

      .cls-3 {
        fill: #7997a8;
      }
    </style>
  </defs>
  <path class="cls-2" d="m6.41,189.58c.71.79,1.43,1.6,2.17,2.36,1.38,1.43,2.82,2.82,4.3,4.11,11.09,9.74,25.37,15.92,41.1,16.86,1.35.11,2.73.14,4.11.14,37.89,0,68.61-30.74,68.61-68.64,0-30.74-20.22-56.76-48.1-65.5,1.49,1.71,2.9,3.48,4.19,5.34l.03.03c.74,1.01,1.46,2.09,2.12,3.17,6.73,10.59,10.62,23.14,10.62,36.62,0,37.9-30.75,68.62-68.65,68.62-1.38,0-2.78-.06-4.14-.14-5.67-.34-11.17-1.35-16.37-2.98Z"/>
  <path class="cls-3" d="m222.56,398.49c-3.25,0-6.49-1.25-8.96-3.76l-29.48-29.93c-4.87-4.93-4.81-12.9.15-17.79,4.95-4.87,12.91-4.81,17.77.13l29.49,29.95c4.87,4.95,4.81,12.91-.13,17.79-2.46,2.4-5.66,3.62-8.84,3.62Z"/>
  <path class="cls-3" d="m249.88,341.23c-3.23,0-6.5-1.25-8.96-3.76l-29.47-29.95c-4.88-4.94-4.81-12.91.13-17.8,4.96-4.87,12.93-4.82,17.8.13l29.48,29.96c4.87,4.95,4.8,12.91-.15,17.79-2.45,2.41-5.64,3.62-8.84,3.62Z"/>
  <path class="cls-3" d="m333.12,398.49c-3.25,0-6.5-1.25-8.97-3.76l-29.47-29.93c-4.88-4.93-4.83-12.9.13-17.79,4.94-4.87,12.92-4.81,17.79.13l29.48,29.95c4.88,4.95,4.82,12.91-.14,17.79-2.44,2.4-5.64,3.62-8.83,3.62Z"/>
  <path class="cls-1" d="m460.42,245.38c-11.8-12.16-26.89-20.07-43.31-22.87-3.18-28.55-27.45-50.8-56.82-50.8-6.67,0-13.18,1.14-19.32,3.34-6.41-17.02-17.32-32.25-31.56-43.84-18.32-14.9-41.43-23.1-65.08-23.1-27.57,0-53.5,10.73-72.99,30.23-19.5,19.5-30.24,45.42-30.24,73,0,5.42-4.22,9.82-9.62,10.03-.05,0-.09,0-.14,0-.21,0-.53,0-.6,0-.05,0-.11,0-.17,0-20.64.31-40.06,8.53-54.67,23.15-14.93,14.93-23.15,34.8-23.15,55.93,0,43.61,35.46,79.07,79.05,79.07h32.61v-22.87h-32.61c-30.98,0-56.18-25.2-56.18-56.2,0-15.01,5.84-29.14,16.45-39.75,10.37-10.37,24.13-16.21,38.77-16.45.73,0,1.12,0,1.39-.02,8.54-.3,16.52-3.85,22.48-10,5.98-6.17,9.27-14.3,9.27-22.9,0-44.32,36.05-80.37,80.36-80.37,18.41,0,36.4,6.38,50.65,17.97,14.06,11.43,23.94,27.41,27.81,44.99.83,3.74,3.46,6.82,7.04,8.2,3.57,1.38,7.6.89,10.72-1.32,5.8-4.09,12.62-6.25,19.74-6.25,18.91,0,34.3,15.4,34.3,34.32,0,.97-.04,1.97-.13,2.98-.27,3.13.77,6.23,2.85,8.58,2.09,2.35,5.05,3.74,8.19,3.83,14.62.46,28.3,6.51,38.51,17.03,10.24,10.54,15.87,24.45,15.87,39.15,0,30.99-25.2,56.2-56.18,56.2h-32.61v22.87h32.61c43.59,0,79.05-35.46,79.05-79.07,0-20.69-7.94-40.25-22.33-55.09Z"/>
</svg>