<?xml version="1.0" encoding="UTF-8"?>
<svg id="objects" xmlns="http://www.w3.org/2000/svg" viewBox="0 0 522.77 489.07">
  <defs>
    <style>
      .cls-1 {
        fill: #fff;
      }

      .cls-2 {
        fill: #bc9e69;
      }

      .cls-3 {
        fill: #7997a8;
      }
    </style>
  </defs>
  <path class="cls-2" d="m9.02,158.18c.74.83,1.5,1.66,2.27,2.47,1.44,1.5,2.93,2.94,4.49,4.29,11.56,10.15,26.47,16.6,42.88,17.58,1.41.11,2.85.15,4.29.15,39.53,0,71.59-32.06,71.59-71.6,0-32.08-21.1-59.22-50.19-68.34,1.56,1.79,3.02,3.62,4.38,5.56l.03.02c.77,1.06,1.53,2.19,2.22,3.31,7.02,11.05,11.08,24.14,11.08,38.22,0,39.54-32.08,71.59-71.63,71.59-1.44,0-2.9-.06-4.32-.14-5.92-.35-11.65-1.41-17.09-3.11Z"/>
  <path class="cls-1" d="m477.22,226.77c-12.31-12.68-28.06-20.93-45.19-23.85-3.32-29.77-28.64-52.99-59.28-52.99-6.95,0-13.75,1.19-20.16,3.49-6.7-17.76-18.07-33.65-32.94-45.74-19.11-15.54-43.22-24.1-67.9-24.1-28.77,0-55.82,11.2-76.16,31.55-20.34,20.34-31.55,47.39-31.55,76.16,0,5.66-4.4,10.24-10.04,10.46-.04,0-.1,0-.15,0-.22,0-.56,0-.62,0-.06,0-.12,0-.18,0-21.53.32-41.79,8.9-57.04,24.14-15.57,15.58-24.15,36.29-24.15,58.32,0,45.48,37,82.48,82.47,82.48h34.02v-23.86h-34.02c-32.32,0-58.61-26.3-58.61-58.62,0-15.66,6.09-30.38,17.16-41.45,10.81-10.81,25.18-16.9,40.45-17.15.77,0,1.17-.02,1.45-.02,8.91-.3,17.24-4.01,23.46-10.42,6.24-6.44,9.67-14.92,9.67-23.89,0-46.23,37.62-83.85,83.85-83.85,19.21,0,37.98,6.66,52.85,18.75,14.67,11.93,24.98,28.6,29.02,46.94.86,3.9,3.61,7.11,7.34,8.56,3.72,1.44,7.92.92,11.19-1.38,6.04-4.27,13.16-6.52,20.6-6.52,19.74,0,35.79,16.06,35.79,35.79,0,1.01-.05,2.06-.14,3.11-.28,3.26.79,6.5,2.98,8.95,2.18,2.45,5.26,3.89,8.54,4,15.26.48,29.53,6.78,40.19,17.76,10.68,10.99,16.56,25.49,16.56,40.83,0,32.32-26.29,58.62-58.62,58.62h-34.02v23.86h34.02c45.48,0,82.48-37,82.48-82.48,0-21.57-8.27-41.97-23.3-57.45Z"/>
  <g>
    <path class="cls-3" d="m208.1,424.85c-4.21,0-7.62-3.41-7.62-7.62v-101.06c0-4.2,3.41-7.62,7.62-7.62s7.61,3.41,7.61,7.62v101.06c0,4.21-3.41,7.62-7.61,7.62Z"/>
    <path class="cls-3" d="m234.46,424.85c-4.21,0-7.62-3.41-7.62-7.62v-101.06c0-4.2,3.41-7.62,7.62-7.62s7.62,3.41,7.62,7.62v101.06c0,4.21-3.41,7.62-7.62,7.62Z"/>
    <path class="cls-3" d="m260.83,424.85c-4.21,0-7.62-3.41-7.62-7.62v-101.06c0-4.2,3.41-7.62,7.62-7.62s7.62,3.41,7.62,7.62v101.06c0,4.21-3.41,7.62-7.62,7.62Z"/>
    <path class="cls-3" d="m287.19,424.85c-4.2,0-7.62-3.41-7.62-7.62v-101.06c0-4.2,3.41-7.62,7.62-7.62s7.62,3.41,7.62,7.62v101.06c0,4.21-3.41,7.62-7.62,7.62Z"/>
    <path class="cls-3" d="m313.55,424.85c-4.21,0-7.62-3.41-7.62-7.62v-101.06c0-4.2,3.41-7.62,7.62-7.62s7.62,3.41,7.62,7.62v101.06c0,4.21-3.41,7.62-7.62,7.62Z"/>
    <path class="cls-3" d="m339.92,424.85c-4.2,0-7.61-3.41-7.61-7.62v-101.06c0-4.2,3.41-7.62,7.61-7.62s7.62,3.41,7.62,7.62v101.06c0,4.21-3.41,7.62-7.62,7.62Z"/>
  </g>
</svg>