<?xml version="1.0" encoding="UTF-8"?>
<svg id="objects" xmlns="http://www.w3.org/2000/svg" viewBox="0 0 489.07 489.07">
  <defs>
    <style>
      .cls-1 {
        fill: #fff;
      }

      .cls-2 {
        fill: #bc9e69;
      }

      .cls-3 {
        fill: #7997a8;
      }
    </style>
  </defs>
  <path class="cls-1" d="m439.78,224.42c-11.8-12.16-26.89-20.07-43.31-22.86-3.18-28.54-27.45-50.79-56.82-50.79-6.67,0-13.18,1.13-19.32,3.34-6.42-17.02-17.32-32.25-31.57-43.84-18.32-14.9-41.43-23.1-65.08-23.1-27.57,0-53.5,10.74-72.99,30.23-19.5,19.5-30.24,45.42-30.24,72.99,0,5.42-4.22,9.82-9.62,10.03-.05,0-.09,0-.14,0-.22,0-.53,0-.6,0-.06,0-.12,0-.17,0-20.64.32-40.06,8.53-54.67,23.15-14.93,14.94-23.14,34.8-23.14,55.93,0,43.61,35.46,79.08,79.05,79.08h32.61v-22.87h-32.61c-30.98,0-56.18-25.21-56.18-56.21,0-15.02,5.84-29.14,16.45-39.75,10.37-10.37,24.13-16.21,38.77-16.45.73,0,1.13-.01,1.39-.02,8.54-.3,16.53-3.85,22.48-9.99,5.98-6.18,9.27-14.31,9.27-22.91,0-44.31,36.05-80.36,80.36-80.36,18.41,0,36.4,6.38,50.65,17.97,14.06,11.43,23.94,27.42,27.81,44.99.82,3.74,3.46,6.82,7.04,8.2,3.57,1.38,7.59.89,10.72-1.32,5.79-4.09,12.62-6.25,19.74-6.25,18.91,0,34.3,15.39,34.3,34.31,0,.97-.05,1.97-.13,2.98-.27,3.13.77,6.23,2.85,8.58,2.08,2.35,5.05,3.73,8.18,3.83,14.62.45,28.3,6.5,38.51,17.02,10.23,10.54,15.87,24.45,15.87,39.15,0,30.99-25.2,56.21-56.18,56.21h-32.6v22.87h32.6c43.59,0,79.05-35.47,79.05-79.08,0-20.69-7.93-40.25-22.33-55.09Z"/>
  <g>
    <path class="cls-2" d="m221.24,324.2c0-.09,0-.18,0-.26,0-.05,0-.09.02-.14,0-.05,0-.09,0-.14,0-.06.02-.11.03-.17,0-.03,0-.07.01-.1,0-.06.02-.12.03-.18,0-.04.01-.06.02-.09,0-.06.03-.12.04-.19,0-.03,0-.05.02-.09.01-.05.04-.11.05-.17,0-.03.01-.07.03-.09.01-.06.03-.11.05-.16.02-.03.02-.07.04-.11.02-.05.03-.1.06-.14,0-.04.03-.08.05-.12.01-.04.03-.09.04-.13.03-.04.05-.09.07-.14.02-.04.03-.07.05-.1.03-.04.06-.1.08-.15.02-.03.03-.06.05-.09.03-.05.07-.1.09-.15.02-.02.03-.04.05-.08.04-.05.06-.1.1-.15.02-.03.03-.05.05-.08.03-.05.07-.1.1-.15.02-.03.05-.06.07-.09.03-.04.06-.08.1-.13.03-.04.07-.07.09-.11.03-.04.06-.06.09-.1.07-.07.13-.14.2-.2h0c.06-.07.12-.13.2-.19.03-.03.07-.06.1-.09.04-.04.08-.06.11-.09.04-.04.09-.08.13-.11.03-.02.06-.04.08-.07.05-.04.1-.07.15-.11.03-.01.05-.03.07-.04.06-.04.11-.08.17-.11.01-.02.05-.03.07-.04.05-.04.1-.06.15-.09.03-.02.06-.03.09-.04.05-.03.1-.06.15-.08.03-.02.07-.04.1-.05.05-.02.09-.04.14-.06.04-.02.07-.04.12-.05.04-.01.08-.03.13-.05.05-.02.09-.03.13-.05.04-.01.08-.02.12-.04.04-.02.09-.04.15-.05.04,0,.07-.02.11-.04.05,0,.11-.02.16-.04.04,0,.08,0,.1-.01.06-.02.12-.03.17-.04.03,0,.07,0,.11-.02.05,0,.11-.01.17-.03.03,0,.07-.01.11-.01.05,0,.1-.01.16-.02.06,0,.11-.01.17-.01.03,0,.07,0,.1,0,.1,0,.2,0,.29,0h30.96c3.13,0,5.67,2.54,5.67,5.66s-2.54,5.67-5.67,5.67h-17.29l30.74,30.74h0c.07.07.14.13.19.2.04.03.06.07.09.1.03.04.07.07.1.11.03.04.07.09.1.13.02.03.04.05.06.08.04.05.08.1.11.15.01.03.04.05.05.08.03.05.07.1.1.15.02.02.04.05.06.08.03.05.05.11.08.15.02.04.04.06.05.09.03.05.06.1.08.15.02.04.03.07.05.11.02.04.04.09.06.14.02.03.04.08.05.12.02.04.04.09.05.12.02.05.04.09.06.14,0,.03.02.07.03.11.02.06.04.11.06.15,0,.04,0,.07.03.1.01.06.02.11.04.18,0,.03.02.06.02.08.02.06.03.12.04.18,0,.03.01.06.02.09,0,.07.03.12.03.19,0,.03,0,.07.02.1,0,.06.01.12.02.17,0,.05,0,.1,0,.14,0,.05,0,.09,0,.14,0,.09,0,.18,0,.26v.02h0c0,.11,0,.19,0,.29,0,.04,0,.09,0,.13,0,.05,0,.09,0,.14,0,.06-.01.12-.02.17-.01.04-.01.07-.02.1,0,.07-.02.12-.03.18,0,.04-.01.07-.02.1-.01.06-.02.12-.04.18,0,.03-.02.05-.02.09-.02.05-.03.11-.04.18-.02.03-.03.07-.03.09-.02.06-.04.11-.06.16,0,.03-.02.07-.03.11-.02.05-.04.1-.06.15-.01.04-.03.08-.05.12-.01.04-.03.09-.05.12-.02.05-.04.09-.06.14-.02.03-.04.07-.05.1-.02.05-.05.1-.08.15,0,.03-.03.06-.05.09-.03.05-.05.1-.08.15-.02.02-.04.06-.06.08-.03.05-.07.1-.1.15-.01.02-.04.05-.05.07-.03.05-.07.1-.11.15-.02.03-.05.06-.06.09-.03.04-.07.09-.1.12-.03.04-.07.07-.1.11-.03.04-.05.07-.09.1-.06.07-.12.13-.19.2h0c-.07.07-.13.14-.2.2-.03.03-.07.06-.1.09-.03.03-.07.06-.1.09-.05.04-.09.07-.13.11-.03.02-.06.04-.08.06-.06.04-.11.07-.15.11-.03.02-.05.04-.08.05-.05.04-.1.07-.15.1-.02.01-.05.03-.08.04-.05.03-.1.06-.15.1-.03.01-.06.03-.09.04-.04.03-.1.05-.15.08-.03.02-.07.04-.09.05-.05.02-.09.04-.15.06-.03.02-.07.04-.11.05-.04.01-.09.04-.13.05-.05.01-.09.03-.14.05-.04.01-.07.03-.11.04-.04.02-.11.03-.15.05-.04.01-.07.02-.1.03-.06.02-.12.03-.18.04-.03.01-.06.02-.09.03-.06,0-.12.02-.18.04-.03,0-.06.01-.09.02-.06.01-.11.02-.18.03-.03,0-.07,0-.11.01-.06,0-.11.01-.16.02-.05,0-.11,0-.15.01-.04,0-.08,0-.13,0-.09,0-.19.01-.28.01h-11.25l8.62,12.88c2.06,3.26,3.85,6.2,3.24,6.98-.48.6-4.15-1.55-5.47-2.72l-24.07-18.81h0c-.06-.07-.12-.13-.19-.2-.03-.03-.05-.07-.09-.1-.03-.04-.06-.07-.09-.11-.04-.04-.07-.09-.11-.12-.02-.03-.04-.06-.06-.09-.04-.04-.07-.09-.11-.15-.02-.03-.04-.05-.05-.07-.03-.06-.07-.1-.1-.15-.02-.02-.04-.06-.04-.08-.03-.05-.06-.1-.09-.15-.02-.03-.04-.06-.05-.09-.03-.05-.06-.09-.08-.15-.02-.03-.04-.07-.05-.1-.02-.04-.05-.09-.06-.14-.02-.04-.03-.08-.05-.12-.02-.04-.03-.07-.05-.12-.02-.04-.03-.09-.05-.14-.02-.03-.03-.07-.04-.11-.01-.05-.03-.1-.05-.16,0-.02-.02-.06-.03-.09,0-.06-.03-.12-.04-.18-.01-.04-.01-.06-.02-.09-.02-.06-.03-.12-.04-.18,0-.03-.01-.06-.01-.1-.02-.06-.02-.11-.03-.18,0-.03-.02-.07-.02-.1,0-.05-.01-.11-.01-.17-.01-.04-.01-.09-.02-.14,0-.04,0-.09,0-.13,0-.09,0-.18,0-.27h0v-.03c0-.08,0-.17,0-.26,0-.05,0-.09,0-.14,0-.04,0-.09.02-.14,0-.05,0-.11.01-.17,0-.03,0-.07.02-.1,0-.06.01-.12.03-.19,0-.03,0-.06.01-.09.01-.06.03-.12.04-.18,0-.03,0-.05.02-.08,0-.06.03-.12.04-.18.01-.03.02-.06.03-.1.01-.05.03-.1.05-.15,0-.04.03-.07.04-.11.01-.05.03-.09.05-.14.02-.03.03-.08.05-.12.02-.04.03-.09.05-.12.02-.05.04-.09.06-.14.01-.03.03-.07.05-.11.02-.05.04-.1.08-.15,0-.03.03-.06.05-.09.03-.04.06-.1.09-.15,0-.03.02-.05.04-.08.04-.05.07-.1.1-.15.02-.03.03-.05.05-.08.03-.05.07-.09.11-.15.02-.03.04-.06.06-.08.04-.05.07-.09.11-.13.03-.03.07-.07.09-.11.04-.04.06-.07.09-.1.06-.07.13-.14.19-.2h0c.07-.07.15-.13.21-.2.03-.03.06-.06.1-.09.04-.03.07-.07.11-.09.05-.04.09-.07.14-.1.03-.02.06-.04.09-.07.05-.03.1-.07.15-.11.02-.01.05-.03.08-.05.05-.03.11-.07.15-.1.03-.01.05-.03.07-.04.05-.03.1-.07.16-.09.03-.02.05-.03.08-.05.05-.02.1-.05.15-.08.03-.01.06-.03.1-.05.05-.02.09-.04.14-.07.05-.01.08-.03.12-.05.04-.02.09-.03.13-.06.04-.01.09-.03.13-.04.03-.02.07-.03.11-.04.05-.01.1-.03.15-.04.03-.01.07-.02.1-.04.06-.01.11-.03.17-.04.03,0,.06-.01.1-.03.05-.01.11-.02.17-.03.03,0,.07-.01.1-.02.06,0,.11-.01.17-.02.04-.01.08-.01.12-.02.05,0,.09-.01.15-.02.05,0,.11,0,.16-.01.04,0,.07,0,.11,0,.09,0,.19,0,.29,0h11.24l-30.73-30.74h0c-.07-.07-.14-.13-.2-.21-.03-.03-.05-.07-.09-.09-.03-.04-.06-.08-.09-.12-.04-.04-.07-.09-.1-.13-.03-.03-.05-.06-.07-.09-.03-.05-.07-.1-.1-.15-.02-.03-.03-.05-.05-.08-.03-.05-.06-.1-.1-.15-.02-.02-.03-.05-.05-.08-.02-.05-.06-.1-.09-.15-.02-.03-.03-.06-.05-.09-.02-.05-.05-.09-.08-.15-.02-.03-.03-.07-.05-.1-.02-.04-.04-.09-.07-.13,0-.04-.03-.08-.04-.12-.02-.05-.04-.08-.05-.12-.03-.05-.04-.1-.06-.14-.01-.04-.02-.07-.04-.11-.02-.05-.03-.1-.05-.16-.02-.03-.03-.07-.03-.09-.01-.06-.04-.11-.05-.18,0-.03-.01-.05-.02-.09-.01-.06-.03-.12-.04-.18,0-.03-.01-.06-.02-.09,0-.06-.02-.12-.03-.19-.01-.03-.01-.06-.01-.1,0-.06-.02-.12-.03-.18,0-.04,0-.09,0-.14-.01-.04-.01-.09-.02-.13,0-.09,0-.18,0-.27v-.02h0Z"/>
    <path class="cls-3" d="m206.57,376.57c-3.26,0-6.5-1.25-8.96-3.76l-29.48-29.93c-4.87-4.93-4.81-12.91.14-17.79,4.95-4.87,12.91-4.82,17.78.13l29.49,29.96c4.87,4.95,4.81,12.9-.13,17.78-2.46,2.41-5.66,3.62-8.84,3.62Z"/>
    <path class="cls-3" d="m317.12,372.5c-3.25,0-6.5-1.25-8.97-3.77l-29.46-29.93c-4.88-4.94-4.83-12.91.13-17.8,4.94-4.87,12.92-4.82,17.79.13l29.48,29.96c4.88,4.95,4.82,12.91-.14,17.78-2.44,2.41-5.64,3.62-8.83,3.62Z"/>
  </g>
</svg>