<?xml version="1.0" encoding="UTF-8"?>
<svg id="objects" xmlns="http://www.w3.org/2000/svg" viewBox="0 0 489.07 489.07">
  <defs>
    <style>
      .cls-1 {
        fill: #fff;
      }

      .cls-2 {
        fill: #e2c58c;
      }

      .cls-3 {
        fill: #7997a8;
      }
    </style>
  </defs>
  <path class="cls-2" d="m146.17,143.99c-17.85,19.1-27.63,43.86-27.63,70.13,0,5.4-4.2,9.77-9.59,9.98-.05,0-.09,0-.14,0-.21,0-.53,0-.59,0-.06,0-.12,0-.17,0-20.55.31-39.89,8.49-54.44,23.04-5.49,5.49-10.07,11.65-13.66,18.29C18.08,250.86,3.68,225.96,3.68,197.71c0-44.94,36.43-81.37,81.36-81.37,24.35,0,46.21,10.7,61.13,27.65Z"/>
  <g>
    <path class="cls-1" d="m436.52,244.89c-11.75-12.1-26.78-19.98-43.13-22.76-3.17-28.41-27.33-50.58-56.58-50.58-6.63,0-13.12,1.13-19.24,3.33-6.39-16.95-17.25-32.12-31.44-43.65-18.24-14.84-41.25-23-64.8-23-27.46,0-53.27,10.69-72.69,30.1-19.42,19.42-30.11,45.23-30.11,72.69,0,5.4-4.2,9.77-9.59,9.98-.05,0-.09,0-.14,0-.21,0-.53,0-.59,0h-.17c-20.55.31-39.89,8.49-54.44,23.04-14.86,14.87-23.05,34.64-23.05,55.67,0,43.41,35.31,78.72,78.71,78.72h32.47v-22.77h-32.47c-30.84,0-55.94-25.09-55.94-55.94,0-14.95,5.81-29,16.37-39.56,10.32-10.32,24.03-16.13,38.6-16.37.73,0,1.12,0,1.38-.02,8.51-.29,16.45-3.83,22.38-9.95,5.96-6.14,9.24-14.24,9.24-22.8,0-44.12,35.9-80.02,80.03-80.02,18.33,0,36.25,6.36,50.43,17.9,14,11.39,23.84,27.3,27.7,44.8.82,3.72,3.45,6.79,7.01,8.17,3.55,1.38,7.56.88,10.68-1.31,5.77-4.07,12.56-6.22,19.66-6.22,18.84,0,34.16,15.32,34.16,34.16,0,.96-.04,1.96-.13,2.97-.26,3.11.76,6.2,2.84,8.54,2.07,2.33,5.02,3.71,8.15,3.81,14.56.46,28.18,6.47,38.35,16.95,10.19,10.49,15.8,24.33,15.8,38.96,0,30.85-25.1,55.94-55.95,55.94h-32.47v22.77h32.47c43.41,0,78.72-35.31,78.72-78.72,0-20.59-7.9-40.06-22.24-54.83Z"/>
    <g>
      <path class="cls-3" d="m215.87,368.29h-16.06l11.35-11.35c1-1,1-2.63,0-3.63-1-1-2.63-1-3.63,0l-11.35,11.35v-16.05c0-1.42-1.15-2.57-2.57-2.57s-2.57,1.15-2.57,2.57v16.05l-11.35-11.35c-1-1-2.63-1-3.63,0-1,1.01-1,2.63,0,3.63l11.35,11.35h-16.05c-1.42,0-2.57,1.15-2.57,2.57s1.15,2.57,2.57,2.57h16.05l-11.35,11.35c-1,1-1,2.63,0,3.63.51.5,1.16.75,1.82.75s1.31-.25,1.81-.75l11.35-11.35v16.06c0,1.42,1.15,2.56,2.57,2.56s2.57-1.15,2.57-2.56v-16.06l11.35,11.35c.51.5,1.16.75,1.82.75s1.31-.25,1.81-.75c1-1,1-2.63,0-3.63l-11.35-11.35h16.06c1.42,0,2.56-1.15,2.56-2.57s-1.15-2.57-2.56-2.57Z"/>
      <path class="cls-3" d="m321.22,368.29h-16.06l11.36-11.35c1-1,1-2.63,0-3.63-1.01-1-2.64-1-3.64,0l-11.35,11.35v-16.05c0-1.42-1.15-2.57-2.57-2.57s-2.57,1.15-2.57,2.57v16.05l-11.35-11.35c-1-1-2.63-1-3.63,0-1,1.01-1,2.63,0,3.63l11.36,11.35h-16.06c-1.41,0-2.57,1.15-2.57,2.57s1.15,2.57,2.57,2.57h16.06l-11.36,11.35c-1,1-1,2.63,0,3.63.5.5,1.16.75,1.82.75s1.32-.25,1.82-.75l11.35-11.35v16.06c0,1.42,1.15,2.56,2.57,2.56s2.57-1.15,2.57-2.56v-16.06l11.35,11.35c.5.5,1.16.75,1.82.75s1.32-.25,1.82-.75c1-1,1-2.63,0-3.63l-11.36-11.35h16.06c1.42,0,2.57-1.15,2.57-2.57s-1.15-2.57-2.57-2.57Z"/>
      <path class="cls-3" d="m270.91,309h-16.06l11.35-11.35c1-1,1-2.63,0-3.63-1-1-2.63-1-3.63,0l-11.35,11.35v-16.05c0-1.42-1.15-2.57-2.57-2.57s-2.57,1.15-2.57,2.57v16.05l-11.35-11.35c-1-1-2.63-1-3.63,0-1,1.01-1,2.63,0,3.63l11.35,11.35h-16.05c-1.42,0-2.57,1.15-2.57,2.57s1.15,2.57,2.57,2.57h16.05l-11.35,11.35c-1,1.01-1,2.63,0,3.64.5.5,1.16.75,1.82.75s1.31-.25,1.82-.75l11.35-11.35v16.05c0,1.42,1.15,2.57,2.57,2.57s2.57-1.15,2.57-2.57v-16.05l11.35,11.35c.5.5,1.16.75,1.82.75s1.31-.25,1.82-.75c1-1.01,1-2.63,0-3.64l-11.35-11.35h16.06c1.42,0,2.56-1.15,2.56-2.57s-1.15-2.57-2.56-2.57Z"/>
    </g>
  </g>
</svg>