<?xml version="1.0" encoding="UTF-8"?>
<svg id="objects" xmlns="http://www.w3.org/2000/svg" viewBox="0 0 489.07 489.07">
  <defs>
    <style>
      .cls-1 {
        fill: #fff;
      }

      .cls-2 {
        fill: #e2c58c;
      }

      .cls-3 {
        fill: #7997a8;
      }
    </style>
  </defs>
  <path class="cls-2" d="m154.57,111.05c-17.92,19.18-27.75,44.05-27.75,70.42,0,5.42-4.22,9.81-9.63,10.03-.05,0-.09,0-.14,0-.21,0-.53,0-.59,0-.06,0-.12,0-.18,0-20.64.31-40.06,8.53-54.67,23.14-5.51,5.52-10.11,11.71-13.72,18.39-21.95-14.66-36.42-39.67-36.42-68.04,0-45.13,36.58-81.71,81.71-81.71,24.46,0,46.4,10.73,61.38,27.76Z"/>
  <g>
    <path class="cls-1" d="m446.15,212.39c-11.8-12.16-26.89-20.07-43.31-22.87-3.18-28.54-27.45-50.79-56.82-50.79-6.66,0-13.18,1.14-19.32,3.35-6.42-17.03-17.32-32.25-31.57-43.84-18.31-14.89-41.43-23.1-65.08-23.1-27.58,0-53.5,10.74-73,30.23-19.5,19.5-30.23,45.42-30.23,73,0,5.42-4.22,9.81-9.63,10.03-.05,0-.09,0-.14,0-.21,0-.53,0-.59,0h-.18c-20.64.32-40.06,8.53-54.67,23.15-14.93,14.93-23.14,34.8-23.14,55.93,0,43.61,35.46,79.09,79.05,79.09h32.61v-22.88h-32.61c-30.97,0-56.18-25.21-56.18-56.21,0-15.02,5.84-29.14,16.44-39.74,10.37-10.37,24.13-16.21,38.77-16.45.73,0,1.12,0,1.39-.02,8.54-.3,16.52-3.84,22.47-10,5.98-6.17,9.28-14.3,9.28-22.89,0-44.31,36.05-80.36,80.36-80.36,18.41,0,36.4,6.38,50.65,17.97,14.06,11.43,23.94,27.41,27.82,44.99.82,3.74,3.46,6.82,7.04,8.2,3.57,1.38,7.59.89,10.72-1.32,5.79-4.09,12.62-6.25,19.74-6.25,18.92,0,34.3,15.39,34.3,34.31,0,.97-.04,1.97-.13,2.98-.26,3.13.76,6.23,2.85,8.58,2.08,2.35,5.04,3.73,8.18,3.83,14.62.46,28.3,6.5,38.51,17.03,10.23,10.54,15.87,24.45,15.87,39.15,0,31-25.2,56.21-56.18,56.21h-32.6v22.88h32.6c43.59,0,79.05-35.48,79.05-79.09,0-20.68-7.93-40.25-22.33-55.09Z"/>
    <g>
      <path class="cls-3" d="m188.22,402.29c-4.03,0-7.3-3.27-7.3-7.3v-96.88c0-4.03,3.27-7.31,7.3-7.31s7.3,3.27,7.3,7.31v96.88c0,4.03-3.27,7.3-7.3,7.3Z"/>
      <path class="cls-3" d="m213.49,402.29c-4.03,0-7.3-3.27-7.3-7.3v-96.88c0-4.03,3.26-7.31,7.3-7.31s7.3,3.27,7.3,7.31v96.88c0,4.03-3.27,7.3-7.3,7.3Z"/>
      <path class="cls-3" d="m238.76,402.29c-4.04,0-7.31-3.27-7.31-7.3v-96.88c0-4.03,3.27-7.31,7.31-7.31s7.3,3.27,7.3,7.31v96.88c0,4.03-3.27,7.3-7.3,7.3Z"/>
      <path class="cls-3" d="m264.02,402.29c-4.03,0-7.3-3.27-7.3-7.3v-96.88c0-4.03,3.27-7.31,7.3-7.31s7.3,3.27,7.3,7.31v96.88c0,4.03-3.26,7.3-7.3,7.3Z"/>
      <path class="cls-3" d="m289.28,402.29c-4.03,0-7.3-3.27-7.3-7.3v-96.88c0-4.03,3.27-7.31,7.3-7.31s7.3,3.27,7.3,7.31v96.88c0,4.03-3.27,7.3-7.3,7.3Z"/>
      <path class="cls-3" d="m314.55,402.29c-4.03,0-7.3-3.27-7.3-7.3v-96.88c0-4.03,3.27-7.31,7.3-7.31s7.3,3.27,7.3,7.31v96.88c0,4.03-3.27,7.3-7.3,7.3Z"/>
    </g>
  </g>
</svg>