<?xml version="1.0" encoding="UTF-8"?>
<svg id="objects" xmlns="http://www.w3.org/2000/svg" viewBox="0 0 489.07 489.07">
  <defs>
    <style>
      .cls-1 {
        fill: #fff;
      }

      .cls-2 {
        fill: #e2c58c;
      }

      .cls-3 {
        fill: #7997a8;
      }
    </style>
  </defs>
  <path class="cls-2" d="m155.81,124.24c-18.7,20.01-28.95,45.95-28.95,73.48,0,5.65-4.4,10.24-10.04,10.46-.05,0-.1,0-.15,0-.22,0-.56,0-.62,0-.06,0-.12,0-.18,0-21.54.33-41.8,8.89-57.04,24.13-5.75,5.76-10.55,12.21-14.31,19.17-22.91-15.28-38-41.36-38-70.97,0-47.09,38.17-85.26,85.25-85.26,25.52,0,48.42,11.21,64.04,28.97Z"/>
  <g>
    <path class="cls-3" d="m211.87,389.67c-3.39,0-6.77-1.3-9.35-3.93l-30.76-31.23c-5.08-5.14-5.02-13.46.15-18.55,5.17-5.08,13.47-5.02,18.55.13l30.77,31.25c5.08,5.16,5.02,13.46-.14,18.56-2.56,2.51-5.9,3.78-9.22,3.78Z"/>
    <path class="cls-3" d="m240.37,329.93c-3.37,0-6.78-1.3-9.35-3.93l-30.75-31.23c-5.09-5.14-5.02-13.46.13-18.56,5.17-5.08,13.49-5.02,18.58.14l30.76,31.25c5.08,5.16,5.01,13.46-.15,18.55-2.56,2.51-5.88,3.78-9.22,3.78Z"/>
    <path class="cls-3" d="m327.21,389.67c-3.39,0-6.78-1.3-9.35-3.93l-30.74-31.23c-5.09-5.14-5.04-13.46.13-18.55,5.15-5.08,13.48-5.02,18.56.13l30.76,31.25c5.09,5.16,5.03,13.46-.15,18.56-2.54,2.51-5.88,3.78-9.21,3.78Z"/>
  </g>
  <path class="cls-1" d="m460.04,229.96c-12.31-12.67-28.06-20.93-45.19-23.84-3.32-29.77-28.64-52.99-59.28-52.99-6.95,0-13.75,1.18-20.16,3.49-6.69-17.76-18.07-33.65-32.93-45.74-19.11-15.54-43.23-24.1-67.91-24.1-28.77,0-55.82,11.2-76.16,31.54-20.35,20.34-31.55,47.39-31.55,76.16,0,5.65-4.41,10.24-10.04,10.46-.05,0-.1,0-.15,0-.22,0-.56,0-.62,0h-.18c-21.54.33-41.8,8.9-57.04,24.14-15.57,15.58-24.15,36.29-24.15,58.33,0,45.48,37,82.48,82.47,82.48h34.02v-23.86h-34.02c-32.32,0-58.61-26.3-58.61-58.62,0-15.66,6.09-30.39,17.16-41.46,10.82-10.81,25.18-16.9,40.45-17.15.77,0,1.17-.01,1.45-.02,8.91-.31,17.23-4.01,23.45-10.42,6.24-6.44,9.68-14.92,9.68-23.88,0-46.24,37.61-83.85,83.85-83.85,19.21,0,37.98,6.66,52.85,18.75,14.67,11.93,24.97,28.6,29.02,46.94.86,3.9,3.62,7.11,7.34,8.55,3.72,1.44,7.93.93,11.19-1.38,6.05-4.26,13.17-6.52,20.6-6.52,19.73,0,35.79,16.05,35.79,35.79,0,1.01-.04,2.05-.13,3.11-.28,3.26.8,6.5,2.97,8.95,2.18,2.45,5.26,3.89,8.54,4,15.26.48,29.53,6.78,40.19,17.76,10.67,10.99,16.56,25.49,16.56,40.83,0,32.32-26.3,58.62-58.62,58.62h-34.02v23.86h34.02c45.48,0,82.48-37,82.48-82.48,0-21.57-8.28-41.98-23.3-57.45Z"/>
</svg>