<?xml version="1.0" encoding="UTF-8"?>
<svg id="objects" xmlns="http://www.w3.org/2000/svg" viewBox="0 0 522.77 489.07">
  <defs>
    <style>
      .cls-1 {
        fill: #fff;
      }

      .cls-2 {
        fill: #7997a8;
      }
    </style>
  </defs>
  <path class="cls-2" d="m285.41,272.15l-71.85-37.35c-1.31,0-2.39,1.06-2.4,2.38l-.1,23.24v1.54c-15.62,1.74-30.93,6.08-45.54,12.98-32.04,15.13-66.99,14.12-90.67,10.6-13.2-1.96-24.51-4.9-32.54-7.35-8.03-2.46-12.79-4.44-12.87-4.48-7.28-3.07-15.67.33-18.75,7.6-3.09,7.28.31,15.68,7.59,18.77.87.37,21.74,9.12,51.52,13.65,11.65,1.77,23.11,2.66,34.24,2.66,5.65,0,11.22-.22,16.68-.68,20.6-1.73,39.79-6.73,57.04-14.89,10.81-5.11,21.89-8.47,33.18-10.07l-.11,27c0,1.32,1.06,2.39,2.37,2.4l50.45-25.68,32.71-16.65-10.94-5.69Z"/>
  <path class="cls-1" d="m493.99,236.44c-12.31-12.68-28.06-20.93-45.19-23.85-3.32-29.77-28.64-52.99-59.28-52.99-6.95,0-13.75,1.19-20.16,3.49-6.69-17.76-18.07-33.65-32.93-45.74-19.11-15.54-43.23-24.1-67.91-24.1-28.77,0-55.81,11.2-76.16,31.54-20.34,20.34-31.55,47.39-31.55,76.16,0,5.65-4.4,10.24-10.04,10.46-.05,0-.1,0-.15,0-.23,0-.56,0-.62,0h-.18c-21.54.33-41.79,8.9-57.04,24.14-5.81,5.81-10.64,12.34-14.43,19.38l22.84,8.17c2.37-3.83,5.2-7.41,8.46-10.68,10.82-10.81,25.18-16.9,40.45-17.15.77,0,1.17,0,1.45-.02,8.91-.31,17.24-4.01,23.45-10.42,6.24-6.44,9.67-14.92,9.67-23.88,0-46.24,37.61-83.84,83.85-83.84,19.21,0,37.98,6.66,52.85,18.75,14.67,11.93,24.97,28.6,29.02,46.94.86,3.9,3.61,7.11,7.34,8.55,3.72,1.44,7.92.93,11.19-1.37,6.04-4.27,13.17-6.52,20.6-6.52,19.74,0,35.79,16.05,35.79,35.79,0,1.01-.04,2.06-.14,3.11-.28,3.26.8,6.5,2.98,8.95,2.18,2.45,5.27,3.89,8.54,4,15.26.48,29.52,6.79,40.18,17.76,10.68,11,16.56,25.5,16.56,40.83,0,32.32-26.3,58.62-58.62,58.62H151.11c-16.92,0-32.19-7.22-42.9-18.73l-23.82,8.52c15.01,20.63,39.33,34.06,66.72,34.06h283.71c45.48,0,82.48-37,82.48-82.48,0-21.57-8.27-41.98-23.3-57.45Z"/>
</svg>