<?xml version="1.0" encoding="UTF-8"?>
<svg id="objects" xmlns="http://www.w3.org/2000/svg" viewBox="0 0 489.07 489.07">
  <defs>
    <style>
      .cls-1 {
        fill: #fff;
      }

      .cls-2 {
        fill: #bc9e69;
      }
    </style>
  </defs>
  <path class="cls-1" d="m443.87,214.6c-12.31-12.68-28.06-20.93-45.18-23.85-3.32-29.77-28.64-52.99-59.28-52.99-6.95,0-13.75,1.19-20.16,3.49-6.69-17.76-18.07-33.65-32.94-45.74-19.11-15.54-43.23-24.1-67.9-24.1-28.77,0-55.82,11.2-76.16,31.55-20.35,20.34-31.55,47.39-31.55,76.16,0,5.65-4.4,10.24-10.04,10.46-.05,0-.1,0-.15,0-.22,0-.56,0-.62,0-.06,0-.12,0-.18,0-21.54.32-41.8,8.9-57.05,24.14-15.57,15.58-24.15,36.29-24.15,58.33,0,45.48,37,82.48,82.48,82.48h34.02v-23.87h-34.02c-32.32,0-58.62-26.3-58.62-58.62,0-15.66,6.09-30.39,17.16-41.45,10.82-10.82,25.18-16.9,40.45-17.15.77,0,1.18,0,1.45-.02,8.91-.31,17.24-4,23.45-10.42,6.24-6.43,9.67-14.92,9.67-23.88,0-46.23,37.61-83.84,83.85-83.84,19.21,0,37.98,6.66,52.85,18.75,14.67,11.93,24.97,28.6,29.02,46.95.86,3.9,3.61,7.11,7.34,8.55,3.72,1.44,7.92.92,11.19-1.38,6.04-4.27,13.17-6.52,20.6-6.52,19.73,0,35.79,16.06,35.79,35.8,0,1-.05,2.05-.14,3.11-.28,3.26.8,6.5,2.98,8.95,2.17,2.45,5.26,3.9,8.54,4,15.26.48,29.53,6.78,40.18,17.76,10.68,11,16.56,25.5,16.56,40.83,0,32.32-26.29,58.62-58.62,58.62h-34.02v23.87h34.02c45.48,0,82.48-37,82.48-82.48,0-21.58-8.27-41.98-23.3-57.45Z"/>
  <path class="cls-2" d="m182.91,284.02c0-.18,0-.36,0-.54.01-.1.01-.19.04-.28,0-.1,0-.19,0-.29.02-.12.04-.23.05-.35,0-.07,0-.14.03-.21,0-.12.05-.24.05-.37.02-.07.04-.12.04-.19.01-.12.05-.25.08-.37,0-.06.01-.11.03-.18.04-.12.08-.24.11-.35,0-.07.02-.13.05-.2.04-.11.06-.22.1-.32.03-.07.05-.15.07-.22.04-.11.06-.2.12-.29.02-.09.05-.17.1-.24.02-.09.07-.17.09-.26.05-.09.09-.19.13-.28.04-.08.07-.15.1-.22.06-.1.11-.2.16-.29.05-.06.07-.12.11-.18.05-.11.13-.21.18-.32.04-.05.07-.1.1-.17.08-.1.13-.2.2-.31.04-.06.07-.1.11-.16.07-.1.14-.2.21-.3.05-.05.11-.11.15-.18.07-.08.12-.17.2-.27.06-.08.13-.14.19-.22.07-.07.12-.13.17-.2.13-.14.27-.28.41-.42h0c.11-.13.25-.27.41-.39.06-.06.14-.12.2-.18.07-.06.15-.12.22-.19.09-.08.19-.15.27-.21.06-.04.11-.09.16-.13.1-.08.21-.16.31-.22.05-.04.1-.08.14-.1.12-.08.22-.16.34-.21.03-.04.1-.06.14-.1.11-.07.22-.12.32-.18.06-.04.11-.07.18-.09.1-.06.21-.11.3-.16.08-.04.14-.08.21-.1.1-.05.18-.09.28-.12.09-.04.15-.08.24-.11.08-.03.17-.07.26-.1.1-.03.18-.06.27-.11.09-.03.15-.05.23-.07.1-.04.19-.07.32-.1.07-.02.14-.05.21-.07.11-.02.22-.06.32-.09.08,0,.16-.02.22-.04.12-.03.24-.06.34-.07.07-.02.15-.02.22-.04.11-.02.23-.03.35-.07.07-.01.15-.02.23-.02.1-.02.21-.02.32-.03.11,0,.23-.03.34-.03.07,0,.14,0,.2-.01.2-.01.42-.01.6-.01h63.09c6.37,0,11.55,5.16,11.55,11.53s-5.18,11.55-11.55,11.55h-35.24l62.64,62.64h0c.14.13.27.26.39.41.07.07.12.14.17.2.06.07.13.15.2.22.07.09.14.18.21.27.04.07.09.11.13.17.08.11.16.21.22.3.03.05.07.1.1.16.07.1.15.2.2.31.04.05.07.11.12.16.05.1.1.21.16.3.04.07.08.13.1.19.06.1.11.19.16.3.03.07.07.14.11.21.04.09.08.18.12.27.04.08.08.17.11.25.03.08.07.17.1.25.03.09.07.19.11.29.01.07.05.14.07.21.04.12.07.23.12.32,0,.08.02.14.05.2.03.11.05.23.09.36,0,.06.04.11.04.17.04.13.06.24.08.37,0,.07.02.12.04.18.02.13.05.25.06.38.01.07.01.15.03.21.01.11.03.23.04.35,0,.1.02.2.02.29,0,.09,0,.18.01.28.01.18.01.36.01.53v.06c0,.2,0,.37-.01.55,0,.09,0,.18-.01.28,0,.09-.02.19-.02.27-.02.12-.03.25-.04.35-.02.08-.02.15-.03.21,0,.13-.04.24-.06.36-.02.07-.03.13-.04.19-.03.12-.05.25-.08.37,0,.06-.03.12-.04.18-.04.11-.06.24-.09.36-.04.07-.05.13-.05.19-.04.12-.08.23-.12.33-.02.07-.05.15-.07.22-.04.1-.08.2-.11.29-.02.08-.07.16-.1.24-.03.09-.07.17-.11.25-.04.09-.08.19-.12.28-.04.07-.08.15-.11.2-.04.11-.09.21-.16.31-.02.06-.06.12-.1.18-.05.11-.11.22-.16.32-.04.05-.08.11-.12.16-.06.1-.13.2-.2.31-.03.05-.07.11-.1.15-.06.11-.14.21-.22.3-.04.05-.09.12-.13.18-.07.08-.14.18-.21.26-.07.08-.14.15-.2.22-.05.08-.1.14-.17.21-.12.14-.25.28-.39.41h0c-.14.13-.27.27-.41.4-.07.06-.14.12-.22.17-.07.07-.14.13-.2.19-.11.08-.2.15-.27.22-.06.04-.13.08-.17.12-.11.08-.22.14-.31.22-.06.04-.1.08-.15.1-.1.08-.21.15-.32.22-.05.03-.1.06-.16.09-.1.07-.21.12-.32.19-.06.03-.11.06-.18.09-.1.06-.2.11-.3.16-.06.03-.14.07-.2.1-.09.04-.19.08-.3.13-.06.03-.15.08-.22.11-.09.03-.17.07-.26.1-.1.04-.19.07-.28.11-.07.03-.14.05-.22.07-.09.04-.22.07-.31.11-.07.02-.15.04-.2.06-.12.04-.24.06-.36.09-.06.02-.12.03-.18.05-.13.02-.25.05-.37.08-.06,0-.13.02-.19.03-.11.02-.23.03-.36.06-.08,0-.15.01-.22.02-.12.02-.22.04-.32.04-.11.02-.22.02-.31.02-.09,0-.17.02-.26.02-.19,0-.39.02-.57.02h-22.92l17.56,26.26c4.19,6.64,7.84,12.62,6.59,14.22-.96,1.23-8.45-3.15-11.15-5.54l-49.05-38.33h0c-.12-.14-.25-.27-.39-.41-.06-.07-.1-.13-.18-.21-.06-.07-.13-.14-.19-.22-.07-.09-.14-.18-.22-.26-.04-.06-.07-.12-.11-.18-.08-.1-.15-.2-.22-.3-.04-.05-.08-.1-.11-.15-.07-.11-.13-.21-.21-.31-.04-.06-.07-.12-.09-.16-.07-.1-.13-.21-.19-.32-.03-.06-.08-.12-.1-.18-.06-.1-.12-.2-.15-.31-.05-.06-.09-.14-.11-.2-.04-.09-.09-.19-.13-.28-.03-.08-.07-.16-.1-.25-.04-.07-.07-.15-.11-.25-.04-.1-.07-.19-.1-.29-.04-.07-.07-.15-.08-.22-.04-.1-.07-.2-.1-.33-.02-.06-.03-.12-.06-.19-.02-.12-.05-.25-.07-.36-.02-.06-.04-.12-.04-.18-.04-.12-.07-.25-.09-.37-.02-.06-.03-.12-.04-.19-.04-.12-.04-.23-.05-.36-.01-.07-.04-.14-.04-.21-.01-.1-.04-.23-.04-.35-.01-.09-.02-.18-.03-.27,0-.1-.02-.19-.02-.28,0-.18,0-.36,0-.55v-.06c0-.17,0-.36,0-.53,0-.1.02-.19.02-.28.01-.09.02-.19.03-.29,0-.11.02-.23.04-.35,0-.06.02-.15.04-.21,0-.12.02-.24.05-.38,0-.06.02-.11.04-.18.02-.12.05-.24.09-.37,0-.06.02-.11.04-.17.02-.13.05-.25.07-.36.03-.07.05-.13.06-.2.03-.09.07-.2.1-.32.02-.07.05-.14.08-.21.02-.1.06-.2.1-.29.04-.07.07-.16.11-.25.02-.08.07-.17.1-.25.04-.09.09-.18.13-.27.03-.07.07-.14.11-.21.03-.11.09-.2.15-.3.02-.06.06-.12.1-.19.06-.09.12-.2.19-.3.01-.05.05-.11.09-.16.08-.11.14-.21.21-.31.03-.06.06-.11.11-.16.07-.1.14-.2.22-.3.04-.06.07-.11.11-.17.08-.09.15-.18.22-.27.06-.07.13-.15.19-.22.08-.07.12-.13.18-.2.13-.15.26-.28.39-.41h0c.14-.15.3-.27.42-.4.06-.05.12-.11.21-.18.08-.05.14-.13.22-.18.09-.08.18-.14.28-.21.06-.05.12-.09.17-.13.1-.07.2-.15.29-.22.06-.03.1-.07.16-.11.1-.06.21-.13.31-.2.05-.02.1-.06.15-.09.1-.07.21-.13.33-.18.06-.04.11-.07.17-.1.1-.06.21-.11.31-.16.06-.02.13-.07.2-.09.1-.05.19-.1.28-.14.09-.02.16-.06.24-.1.09-.04.18-.07.27-.11.08-.03.18-.06.27-.1.06-.03.15-.05.23-.08.1-.03.2-.06.3-.1.07-.02.14-.04.22-.06.11-.03.23-.07.33-.09.07-.02.13-.03.21-.05.1-.03.23-.06.34-.07.07-.02.15-.03.21-.05.12-.01.23-.04.35-.05.07-.02.15-.03.25-.04.1,0,.19-.03.31-.03.1,0,.23-.02.33-.03.08,0,.15,0,.22,0,.2,0,.39-.01.59-.01h22.9l-62.62-62.64h0c-.14-.14-.28-.28-.41-.42-.05-.06-.1-.13-.17-.19-.06-.08-.13-.16-.19-.23-.08-.09-.13-.18-.2-.27-.05-.07-.1-.12-.15-.17-.07-.1-.14-.21-.21-.3-.04-.05-.07-.11-.11-.16-.07-.1-.12-.2-.2-.31-.02-.05-.06-.1-.1-.16-.05-.11-.13-.21-.18-.31-.04-.06-.06-.12-.11-.18-.05-.1-.1-.2-.16-.3-.04-.07-.06-.13-.1-.21-.04-.08-.08-.18-.13-.27-.02-.09-.07-.17-.09-.25-.04-.09-.08-.17-.1-.25-.06-.11-.08-.2-.12-.29-.03-.06-.04-.15-.07-.22-.04-.1-.06-.22-.1-.32-.03-.07-.05-.13-.05-.2-.04-.11-.08-.23-.11-.36-.01-.06-.02-.11-.03-.18-.03-.11-.07-.24-.08-.36,0-.07-.02-.13-.04-.19,0-.12-.04-.25-.05-.38-.02-.07-.02-.13-.03-.2-.02-.12-.03-.24-.05-.35,0-.09,0-.18,0-.29-.02-.09-.02-.18-.04-.27,0-.18,0-.35,0-.54v-.06Z"/>
</svg>