<?xml version="1.0" encoding="UTF-8"?>
<svg id="objects" xmlns="http://www.w3.org/2000/svg" viewBox="0 0 489.07 489.07">
  <defs>
    <style>
      .cls-1 {
        fill: #fff;
      }

      .cls-2 {
        fill: #e2c58c;
      }
    </style>
  </defs>
  <path class="cls-1" d="m455.05,244.2c-12.07-12.43-27.51-20.53-44.31-23.39-3.26-29.2-28.09-51.97-58.14-51.97-6.82,0-13.48,1.17-19.77,3.42-6.56-17.41-17.72-32.99-32.3-44.85-18.74-15.24-42.39-23.64-66.59-23.64-28.21,0-54.73,10.99-74.68,30.93-.86.87-1.72,1.75-2.55,2.64-18.33,19.62-28.39,45.07-28.39,72.05,0,5.54-4.32,10.04-9.85,10.26-.05,0-.1,0-.14,0-.22,0-.55,0-.61,0-.06,0-.12,0-.18,0-21.12.32-40.98,8.72-55.94,23.67-5.64,5.64-10.34,11.97-14.03,18.8-6.3,11.65-9.65,24.77-9.65,38.4,0,44.59,36.28,80.88,80.88,80.88h278.21c44.59,0,80.88-36.29,80.88-80.88,0-21.16-8.12-41.17-22.85-56.34Zm-58.02,113.82H118.82c-31.7,0-57.48-25.79-57.48-57.48,0-10.07,2.56-19.74,7.39-28.26,2.54-4.48,5.69-8.65,9.44-12.39,10.61-10.61,24.69-16.57,39.67-16.82.75,0,1.14-.01,1.41-.02,8.74-.3,16.91-3.93,23-10.22,6.12-6.31,9.48-14.63,9.48-23.42,0-19.53,6.85-37.49,18.26-51.61,15.08-18.66,38.15-30.61,63.96-30.61,18.84,0,37.25,6.54,51.83,18.4,14.38,11.69,24.49,28.04,28.46,46.03.84,3.83,3.54,6.98,7.19,8.39,3.65,1.42,7.77.91,10.97-1.35,5.93-4.18,12.92-6.4,20.2-6.4,19.35,0,35.1,15.75,35.1,35.1,0,.99-.04,2.02-.14,3.05-.27,3.2.79,6.37,2.92,8.78,2.14,2.4,5.16,3.81,8.37,3.91,14.96.47,28.95,6.65,39.4,17.41,10.47,10.78,16.23,25,16.23,40.04,0,31.69-25.78,57.48-57.48,57.48Z"/>
  <path class="cls-2" d="m156.73,137.35c-18.33,19.62-28.39,45.07-28.39,72.05,0,5.54-4.32,10.04-9.85,10.26-.05,0-.1,0-.14,0-.22,0-.55,0-.61,0-.06,0-.12,0-.18,0-21.12.32-40.98,8.72-55.94,23.67-5.64,5.64-10.34,11.97-14.03,18.8-22.46-14.99-37.26-40.57-37.26-69.59,0-46.18,37.43-83.6,83.59-83.6,25.02,0,47.48,10.99,62.8,28.41Z"/>
</svg>